<svg width="568" height="831" viewBox="0 0 568 831" fill="none" xmlns="http://www.w3.org/2000/svg">
<path d="M487.5 715.5C489.9 747.5 493.5 803.833 495 830C376.333 832 149 830 138.5 830C138.1 822 142.333 789.667 144.5 774.5L100.5 764.5C84 759.667 50 749.4 46 747C42 744.6 44.3333 741 46 739.5L48 726V717V707.5C47.5 705.333 45.7 698.9 42.5 690.5C39.3 682.1 41.1667 643.333 42.5 625C41 620.667 38 610.7 38 605.5C38 600.3 41 598.667 42.5 598.5C34.8333 594.667 17.7 584.8 10.5 576C1.5 565 0.5 544 0.5 529C0.5 514 1.5 500.5 6 494.5C9.6 489.7 22.5 464.5 28.5 452.5C28.6667 449.167 28.9 441.4 28.5 437C28 431.5 29.5 421.5 38 394.5C44.8 372.9 51.8333 364.833 54.5 363.5L98.5 370.5C100.167 367.167 103.9 358.6 105.5 351C107.1 343.4 128.833 316.167 139.5 303.5V294.5C139.5 291 146.5 285 150 281C152.8 277.8 158.5 275 161 274C163.833 270.5 170.4 262.6 174 259C178.5 254.5 190 255 190 254C190 253 192 251 195 251C198 251 199 247.5 200 245.5C201 243.5 210.5 244 215 243.5C218.6 243.1 222.5 247.667 224 250C228.5 249.833 238.6 249.8 243 251C246.6 246.6 258.167 242.5 263.5 241C260.667 237.5 254.7 230 253.5 228C252 225.5 243.5 213.5 238.5 206C233.5 198.5 223 183.5 226 183C229 182.5 248.5 174.5 255 170.5C261.5 166.5 290 157 302.5 155.5C312.5 154.3 320 155 322.5 155.5C322.5 154.5 322.7 150.6 323.5 143C324.3 135.4 330.167 123.167 333 118C329.667 114.833 322 106.9 318 100.5C313 92.5 302.5 69 306 63C309.5 57 316 65.5 320 69C323.2 71.8 336.667 75.5 343 77C350.333 61.6667 365.8 28.2 369 17C373 2.99996 387 -1.00004 403 0.999963C419 2.99996 449.5 13 467.5 20.5C485.5 28 501.5 49 501.5 57C501.5 65 492.5 109 488.5 118C505.5 124 511.5 136 513.5 154C515.5 172 493 184 490.5 184C488 184 477.5 186 472.5 190.5C521.5 218.5 548 256 548 258.5C548 261 535 260.5 526 261.5C518.8 262.3 497.333 274.833 487.5 281C485.333 281.167 480.8 284.6 480 297C479 312.5 518.5 330 530.5 338C542.5 346 543 357.5 541 365C539 372.5 549.5 389.5 548 403C546.5 416.5 554.5 439 559 456.5C563.5 474 576 527.5 559 564.5C542 601.5 500.5 596.5 476.5 594C483.5 610.5 484.5 675.5 487.5 715.5Z" fill="#333333"/>
</svg>
