<svg width="128" height="63" viewBox="0 0 128 63" fill="none" xmlns="http://www.w3.org/2000/svg">
<path d="M9.33008 13.5962V31.814H18.439C19.6873 31.814 20.8617 31.5812 21.9619 31.1157C23.0622 30.6291 24.0249 29.9731 24.8501 29.1479C25.6753 28.3228 26.3206 27.36 26.7861 26.2598C27.2728 25.1383 27.5161 23.9535 27.5161 22.7051C27.5161 21.4567 27.2728 20.2824 26.7861 19.1821C26.3206 18.0607 25.6753 17.0874 24.8501 16.2622C24.0249 15.437 23.0622 14.7917 21.9619 14.3262C20.8617 13.8395 19.6873 13.5962 18.439 13.5962H9.33008ZM9.33008 50H0.221191V4.4873H18.439C20.1105 4.4873 21.7186 4.70947 23.2632 5.15381C24.8078 5.57699 26.2466 6.19059 27.5796 6.99463C28.9338 7.77751 30.161 8.72965 31.2612 9.85107C32.3826 10.9513 33.3348 12.1785 34.1177 13.5327C34.9217 14.8869 35.5353 16.3363 35.9585 17.8809C36.4028 19.4255 36.625 21.0335 36.625 22.7051C36.625 24.2708 36.424 25.7943 36.022 27.2754C35.6411 28.7565 35.0804 30.1636 34.3398 31.4966C33.6204 32.8296 32.7318 34.0568 31.6738 35.1782C30.6159 36.2996 29.431 37.2729 28.1191 38.0981L33.1655 50H23.4854L19.5181 40.8276L9.33008 40.8911V50ZM74.1714 32.7026C74.1714 35.2417 73.7165 37.6115 72.8066 39.812C71.8968 41.9914 70.659 43.8851 69.0933 45.4932C67.5275 47.0801 65.6867 48.339 63.5708 49.27C61.4761 50.1799 59.2227 50.6348 56.8105 50.6348C54.4196 50.6348 52.1662 50.1799 50.0503 49.27C47.9556 48.339 46.1147 47.0801 44.5278 45.4932C42.9621 43.8851 41.7243 41.9914 40.8145 39.812C39.9046 37.6115 39.4497 35.2417 39.4497 32.7026C39.4497 30.1213 39.9046 27.7303 40.8145 25.5298C41.7243 23.3293 42.9621 21.4355 44.5278 19.8486C46.1147 18.2406 47.9556 16.9816 50.0503 16.0718C52.1662 15.1619 54.4196 14.707 56.8105 14.707C59.2227 14.707 61.4761 15.1408 63.5708 16.0083C65.6867 16.8547 67.5275 18.0713 69.0933 19.6582C70.659 21.224 71.8968 23.1177 72.8066 25.3394C73.7165 27.5399 74.1714 29.9943 74.1714 32.7026ZM65.4434 32.7026C65.4434 31.3062 65.2106 30.0472 64.7451 28.9258C64.3008 27.7832 63.6872 26.8099 62.9043 26.0059C62.1214 25.1807 61.201 24.5565 60.1431 24.1333C59.1063 23.689 57.9954 23.4668 56.8105 23.4668C55.6257 23.4668 54.5042 23.689 53.4463 24.1333C52.4095 24.5565 51.4997 25.1807 50.7168 26.0059C49.9551 26.8099 49.3521 27.7832 48.9077 28.9258C48.4634 30.0472 48.2412 31.3062 48.2412 32.7026C48.2412 34.0145 48.4634 35.2311 48.9077 36.3525C49.3521 37.474 49.9551 38.4473 50.7168 39.2725C51.4997 40.0977 52.4095 40.7536 53.4463 41.2402C54.5042 41.7057 55.6257 41.9385 56.8105 41.9385C57.9954 41.9385 59.1063 41.7163 60.1431 41.272C61.201 40.8276 62.1214 40.2035 62.9043 39.3994C63.6872 38.5954 64.3008 37.6221 64.7451 36.4795C65.2106 35.3369 65.4434 34.078 65.4434 32.7026ZM89.3105 6.77246C89.3105 7.5765 89.1519 8.32764 88.8345 9.02588C88.5382 9.72412 88.1257 10.3377 87.5967 10.8667C87.0889 11.3745 86.4753 11.7871 85.7559 12.1045C85.0576 12.4007 84.3171 12.5488 83.5342 12.5488C82.709 12.5488 81.9367 12.4007 81.2173 12.1045C80.519 11.7871 79.9054 11.3745 79.3765 10.8667C78.8475 10.3377 78.4243 9.72412 78.1069 9.02588C77.8107 8.32764 77.6626 7.5765 77.6626 6.77246C77.6626 5.98958 77.8107 5.24902 78.1069 4.55078C78.4243 3.83138 78.8475 3.21777 79.3765 2.70996C79.9054 2.18099 80.519 1.76839 81.2173 1.47217C81.9367 1.15479 82.709 0.996094 83.5342 0.996094C84.3171 0.996094 85.0576 1.15479 85.7559 1.47217C86.4753 1.76839 87.0889 2.18099 87.5967 2.70996C88.1257 3.21777 88.5382 3.83138 88.8345 4.55078C89.1519 5.24902 89.3105 5.98958 89.3105 6.77246ZM66.0464 62.9492V54.2212L70.8389 54.2847C72.0026 54.2847 73.0817 54.0413 74.0762 53.5547C75.0706 53.0892 75.9276 52.4544 76.647 51.6504C77.3875 50.8675 77.9694 49.9577 78.3926 48.9209C78.8158 47.8841 79.0273 46.7944 79.0273 45.6519V16.0083H87.8823V45.6519H87.8188C87.7977 47.2388 87.5755 48.7728 87.1523 50.2539C86.7503 51.735 86.1685 53.1104 85.4067 54.3799C84.645 55.6706 83.7352 56.8343 82.6772 57.8711C81.6193 58.929 80.445 59.8283 79.1543 60.5688C77.8848 61.3306 76.52 61.9124 75.0601 62.3145C73.5789 62.7376 72.0449 62.9492 70.458 62.9492H66.0464ZM127.301 32.7026C127.301 35.2417 126.846 37.6115 125.937 39.812C125.027 41.9914 123.789 43.8851 122.223 45.4932C120.657 47.0801 118.817 48.339 116.701 49.27C114.606 50.1799 112.353 50.6348 109.94 50.6348C107.549 50.6348 105.296 50.1799 103.18 49.27C101.085 48.339 99.2446 47.0801 97.6577 45.4932C96.092 43.8851 94.8542 41.9914 93.9443 39.812C93.0345 37.6115 92.5796 35.2417 92.5796 32.7026C92.5796 30.1213 93.0345 27.7303 93.9443 25.5298C94.8542 23.3293 96.092 21.4355 97.6577 19.8486C99.2446 18.2406 101.085 16.9816 103.18 16.0718C105.296 15.1619 107.549 14.707 109.94 14.707C112.353 14.707 114.606 15.1408 116.701 16.0083C118.817 16.8547 120.657 18.0713 122.223 19.6582C123.789 21.224 125.027 23.1177 125.937 25.3394C126.846 27.5399 127.301 29.9943 127.301 32.7026ZM118.573 32.7026C118.573 31.3062 118.34 30.0472 117.875 28.9258C117.431 27.7832 116.817 26.8099 116.034 26.0059C115.251 25.1807 114.331 24.5565 113.273 24.1333C112.236 23.689 111.125 23.4668 109.94 23.4668C108.756 23.4668 107.634 23.689 106.576 24.1333C105.539 24.5565 104.63 25.1807 103.847 26.0059C103.085 26.8099 102.482 27.7832 102.038 28.9258C101.593 30.0472 101.371 31.3062 101.371 32.7026C101.371 34.0145 101.593 35.2311 102.038 36.3525C102.482 37.474 103.085 38.4473 103.847 39.2725C104.63 40.0977 105.539 40.7536 106.576 41.2402C107.634 41.7057 108.756 41.9385 109.94 41.9385C111.125 41.9385 112.236 41.7163 113.273 41.272C114.331 40.8276 115.251 40.2035 116.034 39.3994C116.817 38.5954 117.431 37.6221 117.875 36.4795C118.34 35.3369 118.573 34.078 118.573 32.7026Z" fill="white"/>
</svg>
