<svg width="81" height="81" viewBox="0 0 81 81" fill="none" xmlns="http://www.w3.org/2000/svg">
<g clip-path="url(#clip0_62_60)">
<path d="M65.3518 55.5994V8.37846C65.3518 6.15635 64.4691 4.02526 62.8978 2.45399C61.3265 0.882728 59.1954 0 56.9733 0L23.4595 0C21.2374 0 19.1063 0.882728 17.535 2.45399C15.9638 4.02526 15.0811 6.15635 15.0811 8.37846V72.0547C15.0811 73.155 15.2978 74.2445 15.7188 75.261C16.1399 76.2775 16.757 77.2012 17.535 77.9792C18.3131 78.7572 19.2367 79.3743 20.2532 79.7954C21.2697 80.2165 22.3592 80.4332 23.4595 80.4332C45.0592 80.4332 44.1375 80.6845 44.8413 79.8467C46.3494 78.0705 44.4559 77.3164 34.5358 68.8374C34.3466 68.6766 34.2004 68.471 34.1108 68.2394C34.0211 68.0077 33.9907 67.7574 34.0223 67.511C34.0539 67.2647 34.1466 67.0301 34.2919 66.8286C34.4371 66.6272 34.6304 66.4652 34.8542 66.3574C35.6083 65.972 35.3234 66.039 43.0316 68.6196C43.284 68.7048 43.5531 68.7287 43.8166 68.6891C44.0801 68.6495 44.3304 68.5477 44.5466 68.3921C44.7629 68.2364 44.9389 68.0314 45.0601 67.7942C45.1813 67.5569 45.2442 67.2941 45.2435 67.0276V45.2437C45.2435 44.7992 45.42 44.373 45.7343 44.0588C46.0485 43.7445 46.4748 43.568 46.9192 43.568C47.3636 43.568 47.7898 43.7445 48.1041 44.0588C48.4183 44.373 48.5949 44.7992 48.5949 45.2437V63.6763C48.5949 64.1207 48.7714 64.5469 49.0857 64.8612C49.3999 65.1754 49.8261 65.352 50.2706 65.352C50.715 65.352 51.1412 65.1754 51.4555 64.8612C51.7697 64.5469 51.9463 64.1207 51.9463 63.6763V56.9735C51.9463 56.5291 52.1228 56.1029 52.4371 55.7886C52.7513 55.4744 53.1775 55.2978 53.6219 55.2978C54.0664 55.2978 54.4926 55.4744 54.8068 55.7886C55.1211 56.1029 55.2976 56.5291 55.2976 56.9735V63.6763C55.2976 64.1207 55.4742 64.5469 55.7884 64.8612C56.1027 65.1754 56.5289 65.352 56.9733 65.352C57.4177 65.352 57.844 65.1754 58.1582 64.8612C58.4725 64.5469 58.649 64.1207 58.649 63.6763V58.6492C58.649 58.2048 58.8256 57.7786 59.1398 57.4643C59.4541 57.15 59.8803 56.9735 60.3247 56.9735C60.7691 56.9735 61.1953 57.15 61.5096 57.4643C61.8239 57.7786 62.0004 58.2048 62.0004 58.6492V63.6763C62.0004 64.1207 62.1769 64.5469 62.4912 64.8612C62.8054 65.1754 63.2317 65.352 63.6761 65.352C64.1205 65.352 64.5467 65.1754 64.861 64.8612C65.1752 64.5469 65.3518 64.1207 65.3518 63.6763V60.3249C65.3518 59.8805 65.5283 59.4542 65.8426 59.14C66.1568 58.8257 66.5831 58.6492 67.0275 58.6492C67.4719 58.6492 67.8981 58.8257 68.2124 59.14C68.5266 59.4542 68.7032 59.8805 68.7032 60.3249V78.7575C68.7032 79.2019 68.8797 79.6281 69.194 79.9424C69.5082 80.2566 69.9344 80.4332 70.3789 80.4332C70.8233 80.4332 71.2495 80.2566 71.5637 79.9424C71.878 79.6281 72.0545 79.2019 72.0545 78.7575V60.3249C72.0523 59.5218 71.8577 58.731 71.487 58.0186C71.1164 57.3063 70.5804 56.693 69.9241 56.2303C69.2678 55.7676 68.5101 55.4689 67.7146 55.3591C66.9191 55.2493 66.1089 55.3318 65.3518 55.5994V55.5994ZM18.4324 8.37846C18.4324 7.04519 18.9621 5.76654 19.9048 4.82378C20.8476 3.88102 22.1262 3.35138 23.4595 3.35138H56.9733C58.3066 3.35138 59.5852 3.88102 60.528 4.82378C61.4708 5.76654 62.0004 7.04519 62.0004 8.37846V10.0541H18.4324V8.37846ZM39.0267 77.0818H23.4595C22.1262 77.0818 20.8476 76.5522 19.9048 75.6094C18.9621 74.6666 18.4324 73.388 18.4324 72.0547V70.379H31.4861C32.0223 71.2001 31.7039 70.8315 39.0267 77.0818ZM57.8614 54.2924C57.2518 53.3331 56.335 52.6087 55.2608 52.2375C54.1865 51.8662 53.0181 51.8699 51.9463 52.2481V45.2437C51.9463 43.9104 51.4166 42.6317 50.4739 41.689C49.5311 40.7462 48.2524 40.2166 46.9192 40.2166C45.5859 40.2166 44.3073 40.7462 43.3645 41.689C42.4217 42.6317 41.8921 43.9104 41.8921 45.2437H26.8109C26.3665 45.2437 25.9403 45.4202 25.626 45.7345C25.3117 46.0487 25.1352 46.4749 25.1352 46.9194C25.1352 47.3638 25.3117 47.79 25.626 48.1042C25.9403 48.4185 26.3665 48.595 26.8109 48.595H41.8921V64.6984L37.0661 63.0227C36.3857 62.7966 35.6636 62.7243 34.9519 62.8112C34.2401 62.8981 33.5566 63.1419 32.9506 63.5251C32.3445 63.9083 31.8312 64.4212 31.4475 65.0269C31.0638 65.6326 30.8195 66.316 30.732 67.0276H18.4324V13.4055H62.0004V53.9237C61.3264 53.6742 60.6053 53.5778 59.8894 53.6416C59.1735 53.7053 58.4807 53.9277 57.8614 54.2924V54.2924Z" fill="white"/>
<path d="M35.1889 20.1083V28.4868C35.1889 29.3756 34.8358 30.228 34.2073 30.8565C33.5788 31.4851 32.7264 31.8381 31.8375 31.8381C30.9487 31.8381 30.0963 31.4851 29.4677 30.8565C28.8392 30.228 28.4861 29.3756 28.4861 28.4868V20.1083C28.4861 19.6639 28.3096 19.2377 27.9954 18.9234C27.6811 18.6092 27.2549 18.4326 26.8105 18.4326C26.366 18.4326 25.9398 18.6092 25.6256 18.9234C25.3113 19.2377 25.1348 19.6639 25.1348 20.1083V28.4868C25.1348 30.2644 25.8409 31.9693 27.098 33.2263C28.355 34.4833 30.0598 35.1895 31.8375 35.1895C33.6152 35.1895 35.3201 34.4833 36.5771 33.2263C37.8341 31.9693 38.5403 30.2644 38.5403 28.4868V20.1083C38.5403 19.6639 38.3638 19.2377 38.0495 18.9234C37.7352 18.6092 37.309 18.4326 36.8646 18.4326C36.4202 18.4326 35.994 18.6092 35.6797 18.9234C35.3655 19.2377 35.1889 19.6639 35.1889 20.1083Z" fill="#FCCA2E"/>
<path d="M52.2819 19.1029L48.5954 24.0127L44.9088 19.1029C44.6422 18.7474 44.2452 18.5123 43.8053 18.4495C43.3653 18.3866 42.9184 18.5011 42.5629 18.7678C42.2073 19.0344 41.9723 19.4314 41.9094 19.8713C41.8466 20.3113 41.9611 20.7582 42.2277 21.1137L46.5007 26.8111L42.2277 32.5084C41.9611 32.864 41.8466 33.3109 41.9094 33.7508C41.9723 34.1908 42.2073 34.5877 42.5629 34.8544C42.9184 35.1211 43.3653 35.2355 43.8053 35.1727C44.2452 35.1098 44.6422 34.8748 44.9088 34.5193L48.5954 29.6095L52.2819 34.5193C52.5485 34.8748 52.9455 35.1098 53.3854 35.1727C53.8254 35.2355 54.2723 35.1211 54.6278 34.8544C54.9834 34.5877 55.2184 34.1908 55.2813 33.7508C55.3441 33.3109 55.2296 32.864 54.963 32.5084L50.69 26.8111L54.963 21.1137C55.2296 20.7582 55.3441 20.3113 55.2813 19.8713C55.2184 19.4314 54.9834 19.0344 54.6278 18.7678C54.2723 18.5011 53.8254 18.3866 53.3854 18.4495C52.9455 18.5123 52.5485 18.7474 52.2819 19.1029V19.1029Z" fill="#FCCA2E"/>
<path d="M36.8646 38.5409H26.8105C26.366 38.5409 25.9398 38.7174 25.6256 39.0317C25.3113 39.3459 25.1348 39.7722 25.1348 40.2166C25.1348 40.661 25.3113 41.0872 25.6256 41.4015C25.9398 41.7157 26.366 41.8923 26.8105 41.8923H36.8646C37.309 41.8923 37.7352 41.7157 38.0495 41.4015C38.3638 41.0872 38.5403 40.661 38.5403 40.2166C38.5403 39.7722 38.3638 39.3459 38.0495 39.0317C37.7352 38.7174 37.309 38.5409 36.8646 38.5409Z" fill="white"/>
<path d="M26.8105 55.2978H33.5132C33.9576 55.2978 34.3839 55.1213 34.6981 54.807C35.0124 54.4927 35.1889 54.0665 35.1889 53.6221C35.1889 53.1777 35.0124 52.7515 34.6981 52.4372C34.3839 52.123 33.9576 51.9464 33.5132 51.9464H26.8105C26.366 51.9464 25.9398 52.123 25.6256 52.4372C25.3113 52.7515 25.1348 53.1777 25.1348 53.6221C25.1348 54.0665 25.3113 54.4927 25.6256 54.807C25.9398 55.1213 26.366 55.2978 26.8105 55.2978V55.2978Z" fill="white"/>
</g>
<defs>
<clipPath id="clip0_62_60">
<rect width="80.4332" height="80.4332" fill="white"/>
</clipPath>
</defs>
</svg>
