<svg width="81" height="81" viewBox="0 0 81 81" fill="none" xmlns="http://www.w3.org/2000/svg">
<g clip-path="url(#clip0_62_280)">
<path d="M78.7544 0H1.67562C1.23122 0 0.80502 0.176539 0.490779 0.490779C0.176539 0.80502 0 1.23122 0 1.67562L0 78.7544C0 79.1988 0.176539 79.625 0.490779 79.9392C0.80502 80.2535 1.23122 80.43 1.67562 80.43H78.7544C79.1988 80.43 79.625 80.2535 79.9392 79.9392C80.2535 79.625 80.43 79.1988 80.43 78.7544V1.67562C80.43 1.23122 80.2535 0.80502 79.9392 0.490779C79.625 0.176539 79.1988 0 78.7544 0V0ZM13.405 77.0788H3.35125V33.5125H13.405V77.0788ZM13.405 30.1612H3.35125V23.4587H13.405V30.1612ZM77.0788 77.0788H16.7563V23.4587H77.0788V77.0788ZM77.0788 20.1075H3.35125V13.405H77.0788V20.1075ZM77.0788 10.0538H3.35125V3.35125H77.0788V10.0538Z" fill="white"/>
<path d="M8.37777 8.37811C8.82218 8.37811 9.24838 8.20157 9.56262 7.88733C9.87686 7.57309 10.0534 7.14688 10.0534 6.70248C10.0534 6.25808 9.87686 5.83188 9.56262 5.51763C9.24838 5.20339 8.82218 5.02686 8.37777 5.02686C7.93337 5.02686 7.50717 5.20339 7.19293 5.51763C6.87869 5.83188 6.70215 6.25808 6.70215 6.70248C6.70215 7.14688 6.87869 7.57309 7.19293 7.88733C7.50717 8.20157 7.93337 8.37811 8.37777 8.37811Z" fill="white"/>
<path d="M15.0809 8.37811C15.5253 8.37811 15.9515 8.20157 16.2657 7.88733C16.58 7.57309 16.7565 7.14688 16.7565 6.70248C16.7565 6.25808 16.58 5.83188 16.2657 5.51763C15.9515 5.20339 15.5253 5.02686 15.0809 5.02686C14.6365 5.02686 14.2103 5.20339 13.8961 5.51763C13.5818 5.83188 13.4053 6.25808 13.4053 6.70248C13.4053 7.14688 13.5818 7.57309 13.8961 7.88733C14.2103 8.20157 14.6365 8.37811 15.0809 8.37811Z" fill="white"/>
<path d="M21.783 8.37811C22.2275 8.37811 22.6537 8.20157 22.9679 7.88733C23.2821 7.57309 23.4587 7.14688 23.4587 6.70248C23.4587 6.25808 23.2821 5.83188 22.9679 5.51763C22.6537 5.20339 22.2275 5.02686 21.783 5.02686C21.3386 5.02686 20.9124 5.20339 20.5982 5.51763C20.284 5.83188 20.1074 6.25808 20.1074 6.70248C20.1074 7.14688 20.284 7.57309 20.5982 7.88733C20.9124 8.20157 21.3386 8.37811 21.783 8.37811Z" fill="white"/>
<path d="M46.683 37.6848C46.5347 37.4347 46.3238 37.2276 46.0711 37.0837C45.8185 36.9398 45.5327 36.8642 45.242 36.8642C44.9512 36.8642 44.6655 36.9398 44.4129 37.0837C44.1602 37.2276 43.9493 37.4347 43.801 37.6848L33.7472 54.441C32.9597 55.748 33.7472 56.2339 38.4054 61.9981H36.8639C36.4195 61.9981 35.9933 62.1746 35.679 62.4889C35.3648 62.8031 35.1882 63.2293 35.1882 63.6737V70.3762C35.1882 70.8206 35.3648 71.2468 35.679 71.561C35.9933 71.8753 36.4195 72.0518 36.8639 72.0518H53.6201C54.0645 72.0518 54.4907 71.8753 54.805 71.561C55.1192 71.2468 55.2957 70.8206 55.2957 70.3762V63.6737C55.2957 63.2293 55.1192 62.8031 54.805 62.4889C54.4907 62.1746 54.0645 61.9981 53.6201 61.9981H52.0785C56.7703 56.1334 57.5243 55.7648 56.7368 54.441L46.683 37.6848ZM51.9445 68.7006H38.5395V65.3493H51.9445V68.7006ZM47.7889 61.9981H42.7621L37.2828 55.1615L43.5664 44.5883V53.62C43.5664 54.0644 43.7429 54.4906 44.0571 54.8048C44.3714 55.119 44.7976 55.2956 45.242 55.2956C45.6864 55.2956 46.1126 55.119 46.4268 54.8048C46.7411 54.4906 46.9176 54.0644 46.9176 53.62V44.5883L53.2682 55.1615L47.7889 61.9981Z" fill="white"/>
<path d="M28.569 45.2418C28.3489 45.2363 28.13 45.2742 27.9246 45.3534C27.7192 45.4325 27.5313 45.5513 27.3719 45.703C27.2124 45.8547 27.0843 46.0363 26.995 46.2375C26.9058 46.4387 26.857 46.6555 26.8515 46.8756C26.846 47.0956 26.8839 47.3146 26.963 47.52C27.0421 47.7254 27.1609 47.9132 27.3126 48.0727C27.4643 48.2322 27.646 48.3602 27.8471 48.4495C28.0483 48.5388 28.2651 48.5876 28.4852 48.5931H31.8364C32.2808 48.6087 32.7132 48.447 33.0385 48.1438C33.3637 47.8405 33.5552 47.4205 33.5707 46.9761C33.5863 46.5317 33.4246 46.0993 33.1214 45.7741C32.8182 45.4489 32.3981 45.2574 31.9537 45.2418C32.3826 42.0215 33.9663 39.0665 36.4104 36.9263C38.8545 34.7861 41.9927 33.6063 45.2414 33.6063C48.4902 33.6063 51.6284 34.7861 54.0725 36.9263C56.5166 39.0665 58.1003 42.0215 58.5292 45.2418C58.3091 45.2495 58.0927 45.3005 57.8924 45.3918C57.692 45.4832 57.5116 45.6131 57.3615 45.7741C57.0582 46.0993 56.8966 46.5317 56.9122 46.9761C56.9277 47.4205 57.1192 47.8405 57.4444 48.1438C57.7697 48.447 58.202 48.6087 58.6464 48.5931H61.9977C62.4421 48.5931 62.8683 48.4166 63.1825 48.1023C63.4968 47.7881 63.6733 47.3619 63.6733 46.9175C63.6733 46.4731 63.4968 46.0469 63.1825 45.7326C62.8683 45.4184 62.4421 45.2418 61.9977 45.2418C61.7557 42.9286 61.0348 40.6911 59.8809 38.6718C58.7269 36.6524 57.1653 34.8953 55.2952 33.5125H60.3221C60.3221 33.9569 60.4986 34.3831 60.8128 34.6973C61.1271 35.0116 61.5533 35.1881 61.9977 35.1881C62.4421 35.1881 62.8683 35.0116 63.1825 34.6973C63.4968 34.3831 63.6733 33.9569 63.6733 33.5125V30.1612C63.6733 29.7168 63.4968 29.2906 63.1825 28.9764C62.8683 28.6621 62.4421 28.4856 61.9977 28.4856C61.5533 28.4856 61.1271 28.6621 60.8128 28.9764C60.4986 29.2906 60.3221 29.7168 60.3221 30.1612H30.1608C30.1608 29.7168 29.9843 29.2906 29.67 28.9764C29.3558 28.6621 28.9296 28.4856 28.4852 28.4856C28.0408 28.4856 27.6146 28.6621 27.3003 28.9764C26.9861 29.2906 26.8096 29.7168 26.8096 30.1612V33.5125C26.8096 33.9569 26.9861 34.3831 27.3003 34.6973C27.6146 35.0116 28.0408 35.1881 28.4852 35.1881C28.9296 35.1881 29.3558 35.0116 29.67 34.6973C29.9843 34.3831 30.1608 33.9569 30.1608 33.5125H35.1877C33.3331 34.9034 31.7873 36.664 30.648 38.6829C29.5088 40.7019 28.8008 42.9353 28.569 45.2418Z" fill="#FCCA2E"/>
<path d="M8.37777 41.8906C8.82218 41.8906 9.24838 41.7141 9.56262 41.3998C9.87686 41.0856 10.0534 40.6594 10.0534 40.215C10.0534 39.7706 9.87686 39.3444 9.56262 39.0301C9.24838 38.7159 8.82218 38.5394 8.37777 38.5394C7.93337 38.5394 7.50717 38.7159 7.19293 39.0301C6.87869 39.3444 6.70215 39.7706 6.70215 40.215C6.70215 40.6594 6.87869 41.0856 7.19293 41.3998C7.50717 41.7141 7.93337 41.8906 8.37777 41.8906Z" fill="white"/>
<path d="M8.37777 50.2687C8.82218 50.2687 9.24838 50.0922 9.56262 49.778C9.87686 49.4637 10.0534 49.0375 10.0534 48.5931C10.0534 48.1487 9.87686 47.7225 9.56262 47.4083C9.24838 47.094 8.82218 46.9175 8.37777 46.9175C7.93337 46.9175 7.50717 47.094 7.19293 47.4083C6.87869 47.7225 6.70215 48.1487 6.70215 48.5931C6.70215 49.0375 6.87869 49.4637 7.19293 49.778C7.50717 50.0922 7.93337 50.2687 8.37777 50.2687Z" fill="white"/>
<path d="M8.37777 58.6469C8.82218 58.6469 9.24838 58.4704 9.56262 58.1561C9.87686 57.8419 10.0534 57.4157 10.0534 56.9713C10.0534 56.5269 9.87686 56.1007 9.56262 55.7864C9.24838 55.4722 8.82218 55.2957 8.37777 55.2957C7.93337 55.2957 7.50717 55.4722 7.19293 55.7864C6.87869 56.1007 6.70215 56.5269 6.70215 56.9713C6.70215 57.4157 6.87869 57.8419 7.19293 58.1561C7.50717 58.4704 7.93337 58.6469 8.37777 58.6469Z" fill="white"/>
<path d="M8.37777 67.025C8.82218 67.025 9.24838 66.8485 9.56262 66.5342C9.87686 66.22 10.0534 65.7938 10.0534 65.3494C10.0534 64.905 9.87686 64.4788 9.56262 64.1645C9.24838 63.8503 8.82218 63.6738 8.37777 63.6738C7.93337 63.6738 7.50717 63.8503 7.19293 64.1645C6.87869 64.4788 6.70215 64.905 6.70215 65.3494C6.70215 65.7938 6.87869 66.22 7.19293 66.5342C7.50717 66.8485 7.93337 67.025 8.37777 67.025Z" fill="white"/>
</g>
<defs>
<clipPath id="clip0_62_280">
<rect width="80.43" height="80.43" fill="white"/>
</clipPath>
</defs>
</svg>
