<svg width="82" height="82" viewBox="0 0 82 82" fill="none" xmlns="http://www.w3.org/2000/svg">
<path d="M79.7008 10.959C80.1453 10.959 80.5715 10.7824 80.8857 10.4682C81.2 10.1539 81.3765 9.72772 81.3765 9.2833V2.58054C81.3765 2.13612 81.2 1.7099 80.8857 1.39564C80.5715 1.08139 80.1453 0.904846 79.7008 0.904846H72.9981C72.5537 0.904846 72.1274 1.08139 71.8132 1.39564C71.4989 1.7099 71.3224 2.13612 71.3224 2.58054V4.25623H46.187V2.58054C46.187 2.13612 46.0105 1.7099 45.6962 1.39564C45.382 1.08139 44.9557 0.904846 44.5113 0.904846H37.8086C37.3641 0.904846 36.9379 1.08139 36.6237 1.39564C36.3094 1.7099 36.1329 2.13612 36.1329 2.58054V4.25623H10.9975V2.58054C10.9975 2.13612 10.821 1.7099 10.5067 1.39564C10.1925 1.08139 9.76624 0.904846 9.32182 0.904846H2.61905C2.17463 0.904846 1.74841 1.08139 1.43416 1.39564C1.1199 1.7099 0.943359 2.13612 0.943359 2.58054L0.943359 9.2833C0.943359 9.72772 1.1199 10.1539 1.43416 10.4682C1.74841 10.7824 2.17463 10.959 2.61905 10.959H4.29474V17.6618H2.61905C2.17463 17.6618 1.74841 17.8383 1.43416 18.1526C1.1199 18.4668 0.943359 18.893 0.943359 19.3374C0.943359 19.7819 1.1199 20.2081 1.43416 20.5223C1.74841 20.8366 2.17463 21.0131 2.61905 21.0131H4.29474V36.0944H2.61905C2.17463 36.0944 1.74841 36.2709 1.43416 36.5852C1.1199 36.8994 0.943359 37.3256 0.943359 37.7701L0.943359 44.4728C0.943359 44.9172 1.1199 45.3435 1.43416 45.6577C1.74841 45.972 2.17463 46.1485 2.61905 46.1485H4.29474V61.2297H2.61905C2.17463 61.2297 1.74841 61.4063 1.43416 61.7205C1.1199 62.0348 0.943359 62.461 0.943359 62.9054C0.943359 63.3498 1.1199 63.7761 1.43416 64.0903C1.74841 64.4046 2.17463 64.5811 2.61905 64.5811H4.29474V71.2839H2.61905C2.17463 71.2839 1.74841 71.4604 1.43416 71.7747C1.1199 72.0889 0.943359 72.5151 0.943359 72.9596L0.943359 79.6623C0.943359 80.1068 1.1199 80.533 1.43416 80.8472C1.74841 81.1615 2.17463 81.338 2.61905 81.338H9.32182C9.76624 81.338 10.1925 81.1615 10.5067 80.8472C10.821 80.533 10.9975 80.1068 10.9975 79.6623V77.9866H36.1329V79.6623C36.1329 80.1068 36.3094 80.533 36.6237 80.8472C36.9379 81.1615 37.3641 81.338 37.8086 81.338H44.5113C44.9557 81.338 45.382 81.1615 45.6962 80.8472C46.0105 80.533 46.187 80.1068 46.187 79.6623V77.9866H71.3224V79.6623C71.3224 80.1068 71.4989 80.533 71.8132 80.8472C72.1274 81.1615 72.5537 81.338 72.9981 81.338H79.7008C80.1453 81.338 80.5715 81.1615 80.8857 80.8472C81.2 80.533 81.3765 80.1068 81.3765 79.6623V72.9596C81.3765 72.5151 81.2 72.0889 80.8857 71.7747C80.5715 71.4604 80.1453 71.2839 79.7008 71.2839H78.0252V64.5811H79.7008C80.1453 64.5811 80.5715 64.4046 80.8857 64.0903C81.2 63.7761 81.3765 63.3498 81.3765 62.9054C81.3765 62.461 81.2 62.0348 80.8857 61.7205C80.5715 61.4063 80.1453 61.2297 79.7008 61.2297H78.0252V46.1485H79.7008C80.1453 46.1485 80.5715 45.972 80.8857 45.6577C81.2 45.3435 81.3765 44.9172 81.3765 44.4728V37.7701C81.3765 37.3256 81.2 36.8994 80.8857 36.5852C80.5715 36.2709 80.1453 36.0944 79.7008 36.0944H78.0252V21.0131H79.7008C80.1453 21.0131 80.5715 20.8366 80.8857 20.5223C81.2 20.2081 81.3765 19.7819 81.3765 19.3374C81.3765 18.893 81.2 18.4668 80.8857 18.1526C80.5715 17.8383 80.1453 17.6618 79.7008 17.6618H78.0252V10.959H79.7008ZM74.6738 4.25623H78.0252V7.60761H74.6738V4.25623ZM39.4843 4.25623H42.8356V7.60761H39.4843V4.25623ZM4.29474 4.25623H7.64612V7.60761H4.29474V4.25623ZM4.29474 39.4457H7.64612V42.7971H4.29474V39.4457ZM7.64612 77.9866H4.29474V74.6353H7.64612V77.9866ZM42.8356 77.9866H39.4843V74.6353H42.8356V77.9866ZM78.0252 77.9866H74.6738V74.6353H78.0252V77.9866ZM78.0252 42.7971H74.6738V39.4457H78.0252V42.7971ZM74.6738 36.0944H72.9981C72.5537 36.0944 72.1274 36.2709 71.8132 36.5852C71.4989 36.8994 71.3224 37.3256 71.3224 37.7701V44.4728C71.3224 44.9172 71.4989 45.3435 71.8132 45.6577C72.1274 45.972 72.5537 46.1485 72.9981 46.1485H74.6738V71.2839H72.9981C72.5537 71.2839 72.1274 71.4604 71.8132 71.7747C71.4989 72.0889 71.3224 72.5151 71.3224 72.9596V74.6353H46.187V72.9596C46.187 72.5151 46.0105 72.0889 45.6962 71.7747C45.382 71.4604 44.9557 71.2839 44.5113 71.2839H37.8086C37.3641 71.2839 36.9379 71.4604 36.6237 71.7747C36.3094 72.0889 36.1329 72.5151 36.1329 72.9596V74.6353H10.9975V72.9596C10.9975 72.5151 10.821 72.0889 10.5067 71.7747C10.1925 71.4604 9.76624 71.2839 9.32182 71.2839H7.64612V46.1485H9.32182C9.76624 46.1485 10.1925 45.972 10.5067 45.6577C10.821 45.3435 10.9975 44.9172 10.9975 44.4728V37.7701C10.9975 37.3256 10.821 36.8994 10.5067 36.5852C10.1925 36.2709 9.76624 36.0944 9.32182 36.0944H7.64612V10.959H9.32182C9.76624 10.959 10.1925 10.7824 10.5067 10.4682C10.821 10.1539 10.9975 9.72772 10.9975 9.2833V7.60761H36.1329V9.2833C36.1329 9.72772 36.3094 10.1539 36.6237 10.4682C36.9379 10.7824 37.3641 10.959 37.8086 10.959H44.5113C44.9557 10.959 45.382 10.7824 45.6962 10.4682C46.0105 10.1539 46.187 9.72772 46.187 9.2833V7.60761H71.3224V9.2833C71.3224 9.72772 71.4989 10.1539 71.8132 10.4682C72.1274 10.7824 72.5537 10.959 72.9981 10.959H74.6738V36.0944Z" fill="white"/>
<path d="M51.6164 56.2026L46.1871 54.8956V27.7159H51.5828L52.8899 33.1451C52.9816 33.5169 53.198 33.8461 53.5028 34.0778C53.8077 34.3095 54.1828 34.4298 54.5656 34.4187H59.5926C60.0371 34.4187 60.4633 34.2421 60.7775 33.9279C61.0918 33.6136 61.2683 33.1874 61.2683 32.743V19.3374C61.2683 18.893 61.0918 18.4668 60.7775 18.1525C60.4633 17.8383 60.0371 17.6617 59.5926 17.6617H22.7274C22.283 17.6617 21.8568 17.8383 21.5426 18.1525C21.2283 18.4668 21.0518 18.893 21.0518 19.3374V32.743C21.0518 33.1874 21.2283 33.6136 21.5426 33.9279C21.8568 34.2421 22.283 34.4187 22.7274 34.4187C27.8551 34.4187 28.9778 34.7538 29.4302 33.1451L30.7373 27.7159H36.133V54.8956L30.7037 56.2026C30.3319 56.2944 30.0028 56.5107 29.7711 56.8156C29.5394 57.1205 29.4191 57.4955 29.4302 57.8783V62.9054C29.4302 63.3498 29.6068 63.7761 29.921 64.0903C30.2353 64.4046 30.6615 64.5811 31.1059 64.5811H51.2142C51.6586 64.5811 52.0848 64.4046 52.3991 64.0903C52.7133 63.7761 52.8899 63.3498 52.8899 62.9054C52.8899 57.8783 53.225 56.6551 51.6164 56.2026ZM49.5385 61.2297H32.7816V59.1854L38.2108 57.8783C38.5826 57.7866 38.9118 57.5703 39.1435 57.2654C39.3752 56.9605 39.4955 56.5854 39.4844 56.2026V26.0402C39.4844 25.5958 39.3078 25.1696 38.9936 24.8553C38.6793 24.5411 38.2531 24.3645 37.8087 24.3645H29.4302C29.0474 24.3534 28.6724 24.4737 28.3675 24.7054C28.0626 24.9371 27.8463 25.2662 27.7545 25.638L26.4475 31.0673H24.4031V21.0131H57.917V31.0673H55.8726L54.5656 25.638C54.4738 25.2662 54.2575 24.9371 53.9526 24.7054C53.6477 24.4737 53.2727 24.3534 52.8899 24.3645H44.5114C44.067 24.3645 43.6408 24.5411 43.3265 24.8553C43.0123 25.1696 42.8357 25.5958 42.8357 26.0402V56.2026C42.8246 56.5854 42.9449 56.9605 43.1766 57.2654C43.4083 57.5703 43.7375 57.7866 44.1093 57.8783L49.5385 59.2356V61.2297Z" fill="#FCCA2E"/>
<path d="M12.6728 21.0131H16.0241C16.4686 21.0131 16.8948 20.8366 17.209 20.5223C17.5233 20.2081 17.6998 19.7819 17.6998 19.3374C17.6998 18.893 17.5233 18.4668 17.209 18.1525C16.8948 17.8383 16.4686 17.6617 16.0241 17.6617H12.6728C12.2283 17.6617 11.8021 17.8383 11.4879 18.1525C11.1736 18.4668 10.9971 18.893 10.9971 19.3374C10.9971 19.7819 11.1736 20.2081 11.4879 20.5223C11.8021 20.8366 12.2283 21.0131 12.6728 21.0131Z" fill="white"/>
<path d="M19.3767 39.4457H16.0253C15.5809 39.4457 15.1547 39.6223 14.8404 39.9365C14.5262 40.2508 14.3496 40.677 14.3496 41.1214C14.3496 41.5659 14.5262 41.9921 14.8404 42.3063C15.1547 42.6206 15.5809 42.7971 16.0253 42.7971H19.3767C19.8211 42.7971 20.2473 42.6206 20.5616 42.3063C20.8758 41.9921 21.0524 41.5659 21.0524 41.1214C21.0524 40.677 20.8758 40.2508 20.5616 39.9365C20.2473 39.6223 19.8211 39.4457 19.3767 39.4457Z" fill="white"/>
<path d="M29.4304 42.7971C29.8748 42.7971 30.301 42.6206 30.6153 42.3063C30.9295 41.9921 31.1061 41.5659 31.1061 41.1214C31.1061 40.677 30.9295 40.2508 30.6153 39.9365C30.301 39.6223 29.8748 39.4457 29.4304 39.4457H26.079C25.6346 39.4457 25.2084 39.6223 24.8941 39.9365C24.5799 40.2508 24.4033 40.677 24.4033 41.1214C24.4033 41.5659 24.5799 41.9921 24.8941 42.3063C25.2084 42.6206 25.6346 42.7971 26.079 42.7971H29.4304Z" fill="white"/>
<path d="M26.0788 61.2297H22.7274C22.283 61.2297 21.8568 61.4063 21.5426 61.7205C21.2283 62.0348 21.0518 62.461 21.0518 62.9054C21.0518 63.3498 21.2283 63.7761 21.5426 64.0903C21.8568 64.4046 22.283 64.5811 22.7274 64.5811H26.0788C26.5233 64.5811 26.9495 64.4046 27.2637 64.0903C27.578 63.7761 27.7545 63.3498 27.7545 62.9054C27.7545 62.461 27.578 62.0348 27.2637 61.7205C26.9495 61.4063 26.5233 61.2297 26.0788 61.2297Z" fill="white"/>
<path d="M59.5925 61.2297H56.2411C55.7967 61.2297 55.3705 61.4063 55.0562 61.7205C54.742 62.0348 54.5654 62.461 54.5654 62.9054C54.5654 63.3498 54.742 63.7761 55.0562 64.0903C55.3705 64.4046 55.7967 64.5811 56.2411 64.5811H59.5925C60.0369 64.5811 60.4631 64.4046 60.7774 64.0903C61.0916 63.7761 61.2682 63.3498 61.2682 62.9054C61.2682 62.461 61.0916 62.0348 60.7774 61.7205C60.4631 61.4063 60.0369 61.2297 59.5925 61.2297Z" fill="white"/>
<path d="M56.2409 39.4457H52.8896C52.4451 39.4457 52.0189 39.6223 51.7047 39.9365C51.3904 40.2508 51.2139 40.677 51.2139 41.1214C51.2139 41.5659 51.3904 41.9921 51.7047 42.3063C52.0189 42.6206 52.4451 42.7971 52.8896 42.7971H56.2409C56.6854 42.7971 57.1116 42.6206 57.4258 42.3063C57.7401 41.9921 57.9166 41.5659 57.9166 41.1214C57.9166 40.677 57.7401 40.2508 57.4258 39.9365C57.1116 39.6223 56.6854 39.4457 56.2409 39.4457Z" fill="white"/>
<path d="M66.2956 39.4457H62.9442C62.4998 39.4457 62.0736 39.6223 61.7594 39.9365C61.4451 40.2508 61.2686 40.677 61.2686 41.1214C61.2686 41.5659 61.4451 41.9921 61.7594 42.3063C62.0736 42.6206 62.4998 42.7971 62.9442 42.7971H66.2956C66.7401 42.7971 67.1663 42.6206 67.4805 42.3063C67.7948 41.9921 67.9713 41.5659 67.9713 41.1214C67.9713 40.677 67.7948 40.2508 67.4805 39.9365C67.1663 39.6223 66.7401 39.4457 66.2956 39.4457Z" fill="white"/>
<path d="M69.6472 17.6617H66.2958C65.8514 17.6617 65.4252 17.8383 65.1109 18.1525C64.7967 18.4668 64.6201 18.893 64.6201 19.3374C64.6201 19.7819 64.7967 20.2081 65.1109 20.5223C65.4252 20.8366 65.8514 21.0131 66.2958 21.0131H69.6472C70.0916 21.0131 70.5178 20.8366 70.8321 20.5223C71.1463 20.2081 71.3229 19.7819 71.3229 19.3374C71.3229 18.893 71.1463 18.4668 70.8321 18.1525C70.5178 17.8383 70.0916 17.6617 69.6472 17.6617Z" fill="white"/>
<path d="M16.0241 61.2297H12.6728C12.2283 61.2297 11.8021 61.4063 11.4879 61.7205C11.1736 62.0348 10.9971 62.461 10.9971 62.9054C10.9971 63.3498 11.1736 63.7761 11.4879 64.0903C11.8021 64.4046 12.2283 64.5811 12.6728 64.5811H16.0241C16.4686 64.5811 16.8948 64.4046 17.209 64.0903C17.5233 63.7761 17.6998 63.3498 17.6998 62.9054C17.6998 62.461 17.5233 62.0348 17.209 61.7205C16.8948 61.4063 16.4686 61.2297 16.0241 61.2297Z" fill="white"/>
<path d="M69.6472 61.2297H66.2958C65.8514 61.2297 65.4252 61.4063 65.1109 61.7205C64.7967 62.0348 64.6201 62.461 64.6201 62.9054C64.6201 63.3498 64.7967 63.7761 65.1109 64.0903C65.4252 64.4046 65.8514 64.5811 66.2958 64.5811H69.6472C70.0916 64.5811 70.5178 64.4046 70.8321 64.0903C71.1463 63.7761 71.3229 63.3498 71.3229 62.9054C71.3229 62.461 71.1463 62.0348 70.8321 61.7205C70.5178 61.4063 70.0916 61.2297 69.6472 61.2297Z" fill="white"/>
</svg>
