<svg width="82" height="82" viewBox="0 0 82 82" fill="none" xmlns="http://www.w3.org/2000/svg">
<path d="M9.0087 5.96979C8.56428 5.96979 8.13806 6.14633 7.82381 6.46059C7.50955 6.77484 7.33301 7.20106 7.33301 7.64548C7.33301 8.0899 7.50955 8.51612 7.82381 8.83037C8.13806 9.14462 8.56428 9.32117 9.0087 9.32117C9.45312 9.32117 9.87934 9.14462 10.1936 8.83037C10.5078 8.51612 10.6844 8.0899 10.6844 7.64548C10.6844 7.20106 10.5078 6.77484 10.1936 6.46059C9.87934 6.14633 9.45312 5.96979 9.0087 5.96979Z" fill="white"/>
<path d="M15.7128 5.96979C15.2684 5.96979 14.8422 6.14633 14.5279 6.46059C14.2137 6.77484 14.0371 7.20106 14.0371 7.64548C14.0371 8.0899 14.2137 8.51612 14.5279 8.83037C14.8422 9.14462 15.2684 9.32117 15.7128 9.32117C16.1572 9.32117 16.5834 9.14462 16.8977 8.83037C17.2119 8.51612 17.3885 8.0899 17.3885 7.64548C17.3885 7.20106 17.2119 6.77484 16.8977 6.46059C16.5834 6.14633 16.1572 5.96979 15.7128 5.96979Z" fill="white"/>
<path d="M22.4149 5.96979C21.9705 5.96979 21.5443 6.14633 21.2301 6.46059C20.9158 6.77484 20.7393 7.20106 20.7393 7.64548C20.7393 8.0899 20.9158 8.51612 21.2301 8.83037C21.5443 9.14462 21.9705 9.32117 22.4149 9.32117C22.8594 9.32117 23.2856 9.14462 23.5998 8.83037C23.9141 8.51612 24.0906 8.0899 24.0906 7.64548C24.0906 7.20106 23.9141 6.77484 23.5998 6.46059C23.2856 6.14633 22.8594 5.96979 22.4149 5.96979Z" fill="white"/>
<path d="M80.511 43.5388C80.0068 42.3269 79.152 41.2934 78.0562 40.5709C76.9604 39.8483 75.6737 39.4697 74.3613 39.4836V2.61838C74.3613 2.17396 74.1847 1.74774 73.8705 1.43349C73.5562 1.11923 73.13 0.942688 72.6856 0.942688H2.30655C1.86213 0.942688 1.43591 1.11923 1.12166 1.43349C0.807405 1.74774 0.630859 2.17396 0.630859 2.61838L0.630859 72.9974C0.630859 73.4418 0.807405 73.868 1.12166 74.1823C1.43591 74.4966 1.86213 74.6731 2.30655 74.6731H39.8588C39.4566 76.885 39.2555 78.812 39.1717 79.5326C39.1483 79.7663 39.1742 80.0024 39.2478 80.2254C39.3214 80.4485 39.4411 80.6536 39.5991 80.8274C39.7571 81.0012 39.9499 81.1398 40.165 81.2343C40.38 81.3288 40.6125 81.377 40.8474 81.3759C43.0426 81.3759 52.5773 79.8677 55.1578 77.2537C55.8623 76.4975 56.4294 75.6242 56.8335 74.6731H72.6856C73.13 74.6731 73.5562 74.4966 73.8705 74.1823C74.1847 73.868 74.3613 73.4418 74.3613 72.9974V55.6708C78.2991 51.7161 82.7397 48.6329 80.511 43.5388ZM3.98224 4.29407H71.0099V10.9968H3.98224V4.29407ZM3.98224 71.3217V14.3482H71.0099V40.422C70.5054 40.7033 70.0382 41.0467 69.619 41.4441C58.4087 52.6545 60.9557 50.3923 60.9557 49.5377C60.9557 49.0933 60.7792 48.6671 60.4649 48.3528C60.1507 48.0386 59.7245 47.862 59.28 47.862H32.469C32.0246 47.862 31.5983 48.0386 31.2841 48.3528C30.9698 48.6671 30.7933 49.0933 30.7933 49.5377C30.7933 49.9821 30.9698 50.4084 31.2841 50.7226C31.5983 51.0369 32.0246 51.2134 32.469 51.2134C61.5925 51.2134 59.4811 51.314 60.0844 50.9788L56.4984 54.5648H32.469C32.0246 54.5648 31.5983 54.7413 31.2841 55.0556C30.9698 55.3699 30.7933 55.7961 30.7933 56.2405C30.7933 56.6849 30.9698 57.1111 31.2841 57.4254C31.5983 57.7396 32.0246 57.9162 32.469 57.9162H53.147L49.7956 61.2676H32.469C32.0246 61.2676 31.5983 61.4441 31.2841 61.7584C30.9698 62.0726 30.7933 62.4988 30.7933 62.9433C30.7933 63.3877 30.9698 63.8139 31.2841 64.1282C31.5983 64.4424 32.0246 64.6189 32.469 64.6189H44.1988C42.2288 66.3525 40.935 68.7266 40.5458 71.3217H3.98224ZM42.7577 77.7899C43.3107 73.8353 44.4334 69.0428 45.6734 67.7357C46.6207 66.805 47.8979 66.2869 49.2259 66.2946C50.2195 66.2955 51.1906 66.5908 52.0165 67.1433C52.8424 67.6957 53.486 68.4805 53.8661 69.3985C54.2463 70.3166 54.3458 71.3267 54.1522 72.3012C53.9586 73.2758 53.4805 74.1711 52.7784 74.8742C51.5048 76.1477 46.7124 77.2369 42.7577 77.7899ZM71.0099 71.3217H58.7103L71.0099 59.0221V71.3217ZM76.724 48.5491L57.0179 68.2719C56.6057 67.1923 55.9702 66.2118 55.153 65.3946C54.3358 64.5774 53.3553 63.9419 52.2757 63.5297L71.9985 43.8236C72.474 43.3484 73.0814 43.0272 73.7418 42.9017C74.4023 42.7762 75.0852 42.8522 75.7018 43.1198C76.1993 43.3395 76.6358 43.677 76.9737 44.1031C77.3117 44.5291 77.5408 45.0311 77.6414 45.5655C77.7421 46.0999 77.7111 46.6508 77.5513 47.1706C77.3914 47.6904 77.1075 48.1635 76.724 48.5491Z" fill="white"/>
<path d="M7.33301 36.6014C7.45175 36.952 7.67709 37.2568 7.97753 37.4731C8.27797 37.6894 8.63849 37.8065 9.0087 37.8079C70.4395 37.8079 67.0882 38.3273 67.6579 36.6014C67.7752 36.216 67.6579 19.5764 67.6579 19.1407C67.6098 18.8245 67.4722 18.5287 67.2614 18.2882C67.0506 18.0476 66.7753 17.8725 66.4681 17.7834C65.8817 17.6996 9.42762 17.6996 9.0087 17.6996C8.66274 17.716 8.33036 17.8392 8.05729 18.0523C7.78422 18.2653 7.58387 18.5577 7.48382 18.8893C7.33301 19.3753 7.33301 36.2662 7.33301 36.6014ZM64.3065 33.8868L43.4274 27.7537L64.3065 21.6207V33.8868ZM54.3529 34.4565H20.638L37.4954 29.4294L54.3529 34.4565ZM37.4954 26.078L20.638 21.051H54.3529L37.4954 26.078ZM31.5635 27.7537L10.6844 33.8868V21.6207L31.5635 27.7537Z" fill="white"/>
<path d="M59.2797 41.1593H32.4687C32.0242 41.1593 31.598 41.3358 31.2838 41.6501C30.9695 41.9644 30.793 42.3906 30.793 42.835C30.793 43.2794 30.9695 43.7056 31.2838 44.0199C31.598 44.3341 32.0242 44.5107 32.4687 44.5107H59.2797C59.7241 44.5107 60.1504 44.3341 60.4646 44.0199C60.7789 43.7056 60.9554 43.2794 60.9554 42.835C60.9554 42.3906 60.7789 41.9644 60.4646 41.6501C60.1504 41.3358 59.7241 41.1593 59.2797 41.1593Z" fill="white"/>
<path d="M25.7656 41.1593C8.84113 41.1593 7.45031 40.5728 7.33301 42.835C7.33301 43.036 7.33301 62.9432 7.33301 63.4292C7.44058 63.7854 7.66365 64.0957 7.96706 64.3111C8.27046 64.5265 8.63694 64.6348 9.0087 64.6189C27.0391 64.6189 26.1845 64.82 26.8883 64.1665C27.5921 63.513 27.4413 64.1665 27.4413 42.835C27.4413 42.3905 27.2647 41.9643 26.9505 41.6501C26.6362 41.3358 26.21 41.1593 25.7656 41.1593ZM15.2088 52.8891L10.6844 58.3183V47.4599L15.2088 52.8891ZM12.5947 44.5106H22.1796L17.3872 50.275L12.5947 44.5106ZM17.3872 55.5032L22.1796 61.2676H12.5947L17.3872 55.5032ZM19.5655 52.8891L24.0899 47.4599V58.3183L19.5655 52.8891Z" fill="#FCCA2E"/>
</svg>
